<svg xmlns="http://www.w3.org/2000/svg" width="292" height="179" fill="none" viewBox="0 0 292 179">
  <path fill="#042030" d="M145.9 178.8c69.533 0 125.9-13.118 125.9-29.3 0-16.182-56.367-29.3-125.9-29.3-69.533 0-125.9 13.118-125.9 29.3 0 16.182 56.367 29.3 125.9 29.3Z" opacity=".25"/>
  <path fill="#4E2999" d="m244.5 8.1-98.6 33.7L47.2 8.1 0 76.7l145.9 49.9 145.8-49.9-47.2-68.6Z"/>
  <path fill="#240F4F" d="m17.2 73.9 121 46.3L96.6 79s-68.3-16.5-79.4-5.1Zm257.4 0-121 46.3L195.2 79c-.1 0 68.2-16.5 79.4-5.1Z" opacity=".45"/>
  <path fill="#994EF8" d="M145.9 126.6 0 76.7v6.5l145.9 49.9 145.8-49.9v-6.5l-145.8 49.9Z"/>
  <path fill="#3B1E77" d="m68.2 156.6 16.9-44.3 54.4 18.6-71.3 25.7Z"/>
  <path fill="#3B1E77" d="m72.9 143.8 66.6-12.9-54.4-18.6-12.2 31.5Z" opacity=".45"/>
  <path fill="#994EF8" d="m145.9 128.6-77.7 28 5.8 6.1 71.9-25.6 71.8 25.6 5.9-6.1-77.7-28Z"/>
  <path fill="#3B1E77" d="m223.6 156.6-17-44.3-54.4 18.6 71.4 25.7Z"/>
  <path fill="#3B1E77" d="m218.8 143.8-66.6-12.9 54.4-18.6 12.2 31.5Z" opacity=".45"/>
  <path fill="#fff" fill-opacity=".5" d="M145.9 137.1a5.3 5.3 0 1 0 0-10.6 5.3 5.3 0 0 0 0 10.6Z"/>
  <path fill="#F5B304" d="m240.3 8.1-94.4 47-94.4-47c-4.3 5.7-38.9 63.4-38.9 63.4.4 0 .7.1 1.1.1 86.8 8.7 110.9 36 118.9 42.6 8 6.7 13.4 6 13.4 6s5.4.7 13.4-6c8-6.6 32.1-33.9 118.9-42.6.4 0 .7-.1 1.1-.1-.2 0-34.9-57.6-39.1-63.4Z"/>
  <path fill="#994EF8" d="M279.2 71.5c-.4 0-.7.1-1.1.1-86.8 8.7-110.9 36-118.9 42.6-8 6.7-13.4 6-13.4 6s-5.4.7-13.4-6c-8-6.6-32.1-33.9-118.9-42.6-.4 0-.7-.1-1.1-.1-.7 1.1 0 1.9 0 1.9 87.7 8.5 111 35.9 119 42.6 8 6.6 14.3 6.1 14.3 6.1s6.3.5 14.3-6.1 31.3-34 119-42.6c.2 0 .9-.8.2-1.9Z"/>
  <path fill="#F5EFFB" d="M236.7 2.6C188.4-9 145.8 30.7 145.8 30.7S103.2-9 54.9 2.6c0 0-13.7 21-32.6 56.7 0 0 95.1 10.7 123.5 50.6C174.2 70 269.3 59.3 269.3 59.3c-18.9-35.7-32.6-56.7-32.6-56.7Z"/>
  <path fill="#DFCBF4" d="M269.3 59.3S174.2 70 145.8 109.9C117.5 70 22.4 59.3 22.4 59.3s0 3.2-5.3 9.5c0 0 86.3 6.2 117.7 42 7.4 8.4 11 7.4 11 7.4s3.7 1 11-7.4c31.3-35.8 117.7-42 117.7-42-5.2-6.4-5.2-9.5-5.2-9.5Z"/>
  <path fill="#863ED5" d="M231.3 6.8s-36.1-9.2-85.5 29.1C96.5-2.3 60.3 6.8 60.3 6.8L35.9 54.2c74.2 5.1 109.9 42.6 109.9 42.6s35.7-37.5 109.9-42.6L231.3 6.8Zm-85.4 85.5S112.5 58.1 41.7 51.4L62.2 8.8s35.5-6.9 83.7 29.3c48.2-36.2 83.7-29.3 83.7-29.3l20.5 42.6c-70.8 6.7-104.2 40.9-104.2 40.9Z"/>
  <path stroke="#863ED5" stroke-linecap="round" stroke-width="3" d="M155 71.594C168.333 61.76 210 40 238 43m-83 1c11.833-9.265 42.6-27.42 71-25.912M155 58c12.833-9.978 46.2-29.528 77-27.905m-94 41.499C124.667 61.76 83 40 55 43m83 1c-11.833-9.265-42.6-27.42-71-25.912M138 58c-12.833-9.978-46.2-29.528-77-27.905" opacity=".2"/>
  <path fill="#54DAF5" d="M145.9 30.7s1-3.5 2.9-2.5c0 0-1.2 56.7.8 78.8.5 5.5 5.3 13 7.2 15.8h-2.5l-.7 2.3s-7.4-12.5-7.7-17.4c-1.5-22-.7-71.7 0-77Z"/>
</svg>
