<svg xmlns="http://www.w3.org/2000/svg" width="314" height="450" fill="none" viewBox="0 0 314 450">
  <g clip-path="url(#a)">
    <rect width="314" height="450" fill="#672CBC" rx="30"/>
    <path fill="#fff" d="M-14 147.07H92.3s-7.6-23.3-20.4-19.9c-12.8 3.3-12.3 6.2-12.3 6.2s-3.8-19.9-20.9-17.1c-17.1 2.8-20.9 16.6-20.9 16.6s-10.9-4.3-15.7 0c-4.7 4.3-3.8 6.6-3.8 6.6s-10.4-4.7-12.3 7.6Z" opacity=".5" style="mix-blend-mode:soft-light"/>
    <path fill="#fff" d="M267 104.216c-1.2-3.4-3.9-9.3-8.1-10.7-6-2-14.9 4.6-14.9 4.6s-4.3-15.5-18.7-16.1c-14.4-.6-11.8 15.8-11.8 15.8s-3.7-1.1-11.2-3.4c-7.5-2.3-10.1 4.6-10.1 4.6-4.7-1.7-6.6 2.8-7.2 5.2h82Z" opacity=".8" style="mix-blend-mode:soft-light"/>
    <path fill="#FFD08A" d="M43.7 4s-.2 2.6-2.7 2.9c2.5.3 2.7 2.9 2.7 2.9s.2-2.6 2.7-2.9C43.9 6.7 43.7 4 43.7 4Zm134 41s-.2 2.6-2.7 2.9c2.5.3 2.7 2.9 2.7 2.9s.2-2.6 2.7-2.9c-2.5-.2-2.7-2.9-2.7-2.9Zm-98-10s-.2 2.6-2.7 2.9c2.5.3 2.7 2.9 2.7 2.9s.2-2.6 2.7-2.9c-2.5-.2-2.7-2.9-2.7-2.9Zm220 69s-.2 2.6-2.7 2.9c2.5.3 2.7 2.9 2.7 2.9s.2-2.6 2.7-2.9c-2.6-.2-2.7-2.9-2.7-2.9Zm-116.4 59.6s-.2 2.6-2.7 2.9c2.5.3 2.7 2.9 2.7 2.9s.2-2.6 2.7-2.9c-2.6-.2-2.7-2.9-2.7-2.9ZM139.1 74s-.5 7-7.1 7.6c6.6.7 7.1 7.6 7.1 7.6s.5-7 7.1-7.6c-6.6-.6-7.1-7.6-7.1-7.6Zm-124-11.3s-.5 7-7.1 7.6c6.6.7 7.1 7.6 7.1 7.6s.5-7 7.1-7.6c-6.6-.6-7.1-7.6-7.1-7.6ZM132.2 4s-.4 5.1-5.2 5.6c4.8.5 5.2 5.6 5.2 5.6s.4-5.1 5.2-5.6c-4.8-.6-5.2-5.6-5.2-5.6ZM58.6 99s-.3 4.5-4.6 5c4.3.4 4.6 5 4.6 5s.3-4.5 4.6-5c-4.2-.5-4.6-5-4.6-5Zm40.9 99.9s-.3 4.5-4.6 5c4.3.4 4.6 5 4.6 5s.3-4.5 4.6-5c-4.3-.5-4.6-5-4.6-5Z"/>
    <path fill="#fff" d="M237.8 172.5h106.3s-7.6-23.3-20.4-19.9c-12.8 3.3-12.3 6.2-12.3 6.2s-3.8-19.9-20.9-17.1c-17.1 2.8-20.9 16.6-20.9 16.6s-10.9-4.3-15.7 0c-4.7 4.3-3.8 6.6-3.8 6.6s-10.4-4.7-12.3 7.6Z" opacity=".5" style="mix-blend-mode:soft-light"/>
    <path fill="#042030" d="M158.9 368.8c69.533 0 125.9-13.118 125.9-29.3 0-16.182-56.367-29.3-125.9-29.3-69.533 0-125.9 13.118-125.9 29.3 0 16.182 56.367 29.3 125.9 29.3Z" opacity=".25"/>
    <path fill="#4E2999" d="m257.5 198.1-98.6 33.7-98.7-33.7L13 266.7l145.9 49.9 145.8-49.9-47.2-68.6Z"/>
    <path fill="#240F4F" d="m30.2 263.9 121 46.3-41.6-41.2s-68.3-16.5-79.4-5.1Zm257.4 0-121 46.3 41.6-41.2c-.1 0 68.2-16.5 79.4-5.1Z" opacity=".45"/>
    <path fill="#994EF8" d="M158.9 316.6 13 266.7v6.5l145.9 49.9 145.8-49.9v-6.5l-145.8 49.9Z"/>
    <path fill="#3B1E77" d="m81.2 346.6 16.9-44.3 54.4 18.6-71.3 25.7Z"/>
    <path fill="#3B1E77" d="m85.9 333.8 66.6-12.9-54.4-18.6-12.2 31.5Z" opacity=".45"/>
    <path fill="#994EF8" d="m158.9 318.6-77.7 28 5.8 6.1 71.9-25.6 71.8 25.6 5.9-6.1-77.7-28Z"/>
    <path fill="#3B1E77" d="m236.6 346.6-17-44.3-54.4 18.6 71.4 25.7Z"/>
    <path fill="#3B1E77" d="m231.8 333.8-66.6-12.9 54.4-18.6 12.2 31.5Z" opacity=".45"/>
    <path fill="#fff" fill-opacity=".5" d="M158.9 327.1a5.3 5.3 0 1 0 0-10.6 5.3 5.3 0 0 0 0 10.6Z"/>
    <path fill="#F5B304" d="m253.3 198.1-94.4 47-94.4-47c-4.3 5.7-38.9 63.4-38.9 63.4.4 0 .7.1 1.1.1 86.8 8.7 110.9 36 118.9 42.6 8 6.7 13.4 6 13.4 6s5.4.7 13.4-6c8-6.6 32.1-33.9 118.9-42.6.4 0 .7-.1 1.1-.1-.2 0-34.9-57.6-39.1-63.4Z"/>
    <path fill="#994EF8" d="M292.2 261.5c-.4 0-.7.1-1.1.1-86.8 8.7-110.9 36-118.9 42.6-8 6.7-13.4 6-13.4 6s-5.4.7-13.4-6c-8-6.6-32.1-33.9-118.9-42.6-.4 0-.7-.1-1.1-.1-.7 1.1 0 1.9 0 1.9 87.7 8.5 111 35.9 119 42.6 8 6.6 14.3 6.1 14.3 6.1s6.3.5 14.3-6.1 31.3-34 119-42.6c.2 0 .9-.8.2-1.9Z"/>
    <path fill="#F5EFFB" d="M249.7 192.6c-48.3-11.6-90.9 28.1-90.9 28.1s-42.6-39.7-90.9-28.1c0 0-13.7 21-32.6 56.7 0 0 95.1 10.7 123.5 50.6 28.4-39.9 123.5-50.6 123.5-50.6-18.9-35.7-32.6-56.7-32.6-56.7Z"/>
    <path fill="#DFCBF4" d="M282.3 249.3s-95.1 10.7-123.5 50.6C130.5 260 35.4 249.3 35.4 249.3s0 3.2-5.3 9.5c0 0 86.3 6.2 117.7 42 7.4 8.4 11 7.4 11 7.4s3.7 1 11-7.4c31.3-35.8 117.7-42 117.7-42-5.2-6.4-5.2-9.5-5.2-9.5Z"/>
    <path fill="#863ED5" d="M244.3 196.8s-36.1-9.2-85.5 29.1c-49.3-38.2-85.5-29.1-85.5-29.1l-24.4 47.4c74.2 5.1 109.9 42.6 109.9 42.6s35.7-37.5 109.9-42.6l-24.4-47.4Zm-85.4 85.5s-33.4-34.2-104.2-40.9l20.5-42.6s35.5-6.9 83.7 29.3c48.2-36.2 83.7-29.3 83.7-29.3l20.5 42.6c-70.8 6.7-104.2 40.9-104.2 40.9Z"/>
    <path stroke="#863ED5" stroke-linecap="round" stroke-width="3" d="M168 261.594C181.333 251.76 223 230 251 233m-83 1c11.833-9.265 42.6-27.419 71-25.912M168 248c12.833-9.978 46.2-29.528 77-27.905m-94 41.499C137.667 251.76 96 230 68 233m83 1c-11.833-9.265-42.6-27.419-71-25.912M151 248c-12.833-9.978-46.2-29.528-77-27.905" opacity=".2"/>
    <path fill="#54DAF5" d="M158.9 220.7s1-3.5 2.9-2.5c0 0-1.2 56.7.8 78.8.5 5.5 5.3 13 7.2 15.8h-2.5l-.7 2.3s-7.4-12.5-7.7-17.4c-1.5-22-.7-71.7 0-77Z"/>
  </g>
  <defs>
    <clipPath id="a">
      <path fill="#fff" d="M0 0h314v450H0z"/>
    </clipPath>
  </defs>
</svg>
