<svg xmlns="http://www.w3.org/2000/svg" width="20" height="21" fill="none" viewBox="0 0 20 21">
  <g clip-path="url(#a)">
    <path fill="#fff" d="M18.344 3.226h-4.855a3.57 3.57 0 0 0-3.486 2.788 3.573 3.573 0 0 0-3.486-2.788h-4.85A1.668 1.668 0 0 0-.002 4.893v8.535a1.668 1.668 0 0 0 1.667 1.666H4.78c3.548 0 4.607.847 5.114 2.605.024.097.18.097.208 0 .51-1.757 1.57-2.605 5.114-2.605h3.115a1.668 1.668 0 0 0 1.667-1.666V4.896a1.67 1.67 0 0 0-1.656-1.67ZM8.402 12.44a.12.12 0 0 1-.12.12H2.714a.12.12 0 0 1-.112-.074.12.12 0 0 1-.01-.046v-.795a.12.12 0 0 1 .122-.122h5.57a.12.12 0 0 1 .12.122v.795h-.003Zm0-2.115a.12.12 0 0 1-.12.121H2.714a.12.12 0 0 1-.112-.074.121.121 0 0 1-.01-.047V9.53a.12.12 0 0 1 .122-.121h5.57a.12.12 0 0 1 .12.121v.795h-.003Zm0-2.114a.12.12 0 0 1-.12.121H2.714a.12.12 0 0 1-.121-.121v-.795a.12.12 0 0 1 .121-.121h5.57a.12.12 0 0 1 .12.12v.796h-.003Zm9.004 4.226a.121.121 0 0 1-.121.12h-5.566a.122.122 0 0 1-.112-.074.121.121 0 0 1-.01-.046v-.796a.12.12 0 0 1 .122-.12h5.57a.12.12 0 0 1 .12.12v.796h-.003Zm0-2.115a.118.118 0 0 1-.035.086.12.12 0 0 1-.086.035h-5.566a.12.12 0 0 1-.121-.12v-.796a.12.12 0 0 1 .12-.121h5.57a.12.12 0 0 1 .121.121v.795h-.003Zm0-2.115a.121.121 0 0 1-.075.112.12.12 0 0 1-.046.01h-5.566a.12.12 0 0 1-.121-.122v-.792a.12.12 0 0 1 .12-.121h5.57a.12.12 0 0 1 .121.121v.792h-.003Z"/>
  </g>
  <defs>
    <clipPath id="a">
      <path fill="#fff" d="M0 .5h20v20H0z"/>
    </clipPath>
  </defs>
</svg>
