<svg xmlns="http://www.w3.org/2000/svg" width="33" height="32" fill="none" viewBox="0 0 33 32">
  <g clip-path="url(#a)">
    <path fill="#8789A3" d="m24.493 4.218-2.977 1.187-.582-1.327-1.32.143c-1.326.143-2.48.62-3.584 1.49-1.104-.872-2.25-1.35-3.558-1.49l-1.321-.143-.582 1.327-2.977-1.187-5.587 13 3.336 1.268v9.436l10.688-5.33 10.688 5.33v-9.427l3.363-1.277-5.587-13ZM6.985 25.268v-6.156l7.003 2.664-7.003 3.492Zm8.222-4.784-11.016-4.19 4.28-9.96 1.439.575-3.676 8.384 8.973 3.442v1.75Zm0-3.506-6.193-2.375a4.159 4.159 0 0 1 3.461-.144l2.732 1.193v1.326Zm0-3.117-2.1-.916a5.807 5.807 0 0 0-3.979-.16l3.046-6.947c.17.043 1.474.002 3.033 1.321v6.702Zm1.644-6.701c1.53-1.288 2.974-1.3 3.06-1.322l3.034 6.92c-1.2-.38-2.505-.33-3.77.187l-2.324.949V7.16Zm0 8.506 2.947-1.203c1.114-.456 2.277-.396 3.286.133L16.85 16.98v-1.314Zm8.222 9.602-7.001-3.491 7-2.658v6.15Zm-8.222-4.783v-1.75l9-3.44-3.676-8.386 1.44-.575 4.279 9.959-11.043 4.192Z"/>
  </g>
  <defs>
    <clipPath id="a">
      <path fill="#fff" d="M2.005 2H30.08v28H2.005z"/>
    </clipPath>
  </defs>
</svg>
