<svg xmlns="http://www.w3.org/2000/svg" width="33" height="32" fill="none" viewBox="0 0 33 32">
  <g clip-path="url(#a)">
    <g clip-path="url(#b)">
      <path fill="#8789A3" d="M23.836 24.806v-.981c0-1.564-.871-2.97-2.273-3.669L18.9 18.83v-4.958c0-1.306-.61-2.503-1.629-3.27.054-.288.23-.531.46-.607A4.096 4.096 0 0 0 20.547 6.1c0-2.535-2.271-4.455-4.798-4.045-1.953.316-3.427 2.131-3.427 4.22V9.05a12.002 12.002 0 0 0-3.29 8.254v4.633c0 1.228.343 2.403.984 3.417a4.109 4.109 0 0 0-2.63 3.826V30h15.628a2.467 2.467 0 0 0 2.468-2.46 3.086 3.086 0 0 0-1.645-2.734Zm-2.85-3.096a2.445 2.445 0 0 1 1.205 2.115v.389l-1.863-.62.658-1.884Zm-7.02-15.433c0-1.294.88-2.413 2.047-2.602A2.467 2.467 0 0 1 18.9 6.1a2.454 2.454 0 0 1-1.687 2.336 2.326 2.326 0 0 0-1.412 1.354l-1.836-.915v-2.6Zm-3.29 11.027c0-2.577.935-5.01 2.646-6.915l2.57 1.281a2.447 2.447 0 0 1 1.364 2.201v5.972l2.249 1.122-.738 2.11-3.156-1.049v-7.721h-1.645v8.904l2.491.828a4.206 4.206 0 0 1-4.453 1.166l-.052-.018a4.74 4.74 0 0 1-1.276-3.248v-4.633ZM23.013 28.36H9.172a2.471 2.471 0 0 1 2.203-1.638c.073.018.844.339 1.969.339a5.839 5.839 0 0 0 4.773-2.473l4.721 1.57a1.459 1.459 0 0 1 .998 1.381c0 .452-.369.82-.822.82Z"/>
    </g>
  </g>
  <defs>
    <clipPath id="a">
      <path fill="#fff" d="M.39 0h32.086v32H.39z"/>
    </clipPath>
    <clipPath id="b">
      <path fill="#fff" d="M2.396 2h28.075v28H2.396z"/>
    </clipPath>
  </defs>
</svg>
