<svg xmlns="http://www.w3.org/2000/svg" width="23" height="24" fill="none" viewBox="0 0 23 24">
  <path fill="#240F4F" d="M20.149 8H3.04a.927.927 0 0 1-.672-.293A1.027 1.027 0 0 1 2.09 7c0-.265.1-.52.279-.707A.927.927 0 0 1 3.04 6h17.108c.252 0 .494.105.672.293.178.187.278.442.278.707 0 .265-.1.52-.278.707a.927.927 0 0 1-.672.293Zm-3.802 5H3.041a.927.927 0 0 1-.672-.293A1.027 1.027 0 0 1 2.09 12c0-.265.1-.52.279-.707A.927.927 0 0 1 3.04 11h13.306c.252 0 .494.105.672.293.178.187.279.442.279.707 0 .265-.1.52-.279.707a.927.927 0 0 1-.672.293Zm-3.802 5H3.041a.927.927 0 0 1-.672-.293A1.027 1.027 0 0 1 2.09 17c0-.265.1-.52.279-.707A.927.927 0 0 1 3.04 16h9.504c.252 0 .494.105.672.293.179.187.279.442.279.707 0 .265-.1.52-.279.707a.927.927 0 0 1-.672.293Z"/>
</svg>
